<svg xmlns="http://www.w3.org/2000/svg" id="export" class="canvas" preserveAspectRatio="xMidYMid meet" style="" width="1211" height="76"><rect id="background" fill="#fff" pointer-events="all" width="1211" height="76"/><g id="origin" transform="translate(3.45, 3.45) scale(1)"><g id="clusters" class="clusters"/><g id="edge-paths" class="edge-paths" style="pointer-events: none;"><defs><marker id="arrowhead" viewBox="0 0 10 10" refX="9" refY="5" markerUnits="strokeWidth" markerWidth="8" markerHeight="6" orient="auto" style="fill: rgb(0, 0, 0);"><path d="M 0 0 L 10 5 L 0 10 L 4 5 z" style="stroke-width: 1;"/></marker><marker id="arrowhead-select" viewBox="0 0 10 10" refX="9" refY="5" markerUnits="strokeWidth" markerWidth="8" markerHeight="6" orient="auto" style="fill: rgba(220, 0, 0, 0.9);"><path d="M 0 0 L 10 5 L 0 10 L 4 5 z" style="stroke-width: 1;"/></marker><marker id="arrowhead-hover" viewBox="0 0 10 10" refX="9" refY="5" markerUnits="strokeWidth" markerWidth="8" markerHeight="6" orient="auto" style="fill: rgba(220, 0, 0, 0.9);"><path d="M 0 0 L 10 5 L 0 10 L 4 5 z" style="stroke-width: 1;"/></marker></defs><path id="edge-input_layer_1[0][0]" class="edge-path" d="M77.53125,34.5L79.19791666666667,34.5C80.86458333333333,34.5,84.19791666666667,34.5,87.53125,34.5C90.86458333333333,34.5,94.19791666666667,34.5,97.53125,34.5C100.86458333333333,34.5,104.19791666666667,34.5,107.53125,34.5C110.86458333333333,34.5,114.19791666666667,34.5,115.86458333333333,34.5L117.53125,34.5" style="stroke: rgb(0, 0, 0); stroke-width: 1px; fill: none; marker-end: url(&quot;#arrowhead&quot;);"/><path id="edge-conv2d_2[0][0]" class="edge-path" d="M181.03125,34.5L182.69791666666666,34.5C184.36458333333334,34.5,187.69791666666666,34.5,191.03125,34.5C194.36458333333334,34.5,197.69791666666666,34.5,199.36458333333334,34.5L201.03125,34.5" style="stroke: rgb(0, 0, 0); stroke-width: 1px; fill: none; marker-end: url(&quot;#arrowhead&quot;);"/><path id="edge-max_pooling2d_2[0][0]" class="edge-path" d="M286.15771484375,34.5L287.8243815104167,34.5C289.4910481770833,34.5,292.8243815104167,34.5,296.15771484375,34.5C299.4910481770833,34.5,302.8243815104167,34.5,304.4910481770833,34.5L306.15771484375,34.5" style="stroke: rgb(0, 0, 0); stroke-width: 1px; fill: none; marker-end: url(&quot;#arrowhead&quot;);"/><path id="edge-dropout_3[0][0]" class="edge-path" d="M361.27734375,34.5L362.9440104166667,34.5C364.6106770833333,34.5,367.9440104166667,34.5,371.27734375,34.5C374.6106770833333,34.5,377.9440104166667,34.5,379.6106770833333,34.5L381.27734375,34.5" style="stroke: rgb(0, 0, 0); stroke-width: 1px; fill: none; marker-end: url(&quot;#arrowhead&quot;);"/><path id="edge-conv2d_3[0][0]" class="edge-path" d="M444.77734375,34.5L446.4440104166667,34.5C448.1106770833333,34.5,451.4440104166667,34.5,454.77734375,34.5C458.1106770833333,34.5,461.4440104166667,34.5,463.1106770833333,34.5L464.77734375,34.5" style="stroke: rgb(0, 0, 0); stroke-width: 1px; fill: none; marker-end: url(&quot;#arrowhead&quot;);"/><path id="edge-max_pooling2d_3[0][0]" class="edge-path" d="M549.90380859375,34.5L551.5704752604166,34.5C553.2371419270834,34.5,556.5704752604166,34.5,559.90380859375,34.5C563.2371419270834,34.5,566.5704752604166,34.5,568.2371419270834,34.5L569.90380859375,34.5" style="stroke: rgb(0, 0, 0); stroke-width: 1px; fill: none; marker-end: url(&quot;#arrowhead&quot;);"/><path id="edge-dropout_4[0][0]" class="edge-path" d="M625.0234375,34.5L626.6901041666666,34.5C628.3567708333334,34.5,631.6901041666666,34.5,635.0234375,34.5C638.3567708333334,34.5,641.6901041666666,34.5,643.3567708333334,34.5L645.0234375,34.5" style="stroke: rgb(0, 0, 0); stroke-width: 1px; fill: none; marker-end: url(&quot;#arrowhead&quot;);"/><path id="edge-reshape_1[0][0]" class="edge-path" d="M699.9892578125,34.5L701.6559244791666,34.5C703.3225911458334,34.5,706.6559244791666,34.5,709.9892578125,34.5C713.3225911458334,34.5,716.6559244791666,34.5,718.3225911458334,34.5L719.9892578125,34.5" style="stroke: rgb(0, 0, 0); stroke-width: 1px; fill: none; marker-end: url(&quot;#arrowhead&quot;);"/><path id="edge-bidirectional_2[0][0]" class="edge-path" d="M794.0830078125,34.5L795.7496744791666,34.5C797.4163411458334,34.5,800.7496744791666,34.5,804.0830078125,34.5C807.4163411458334,34.5,810.7496744791666,34.5,812.4163411458334,34.5L814.0830078125,34.5" style="stroke: rgb(0, 0, 0); stroke-width: 1px; fill: none; marker-end: url(&quot;#arrowhead&quot;);"/><path id="edge-bidirectional_3[0][0]" class="edge-path" d="M888.1767578125,34.5L889.8434244791666,34.5C891.5100911458334,34.5,894.8434244791666,34.5,898.1767578125,34.5C901.5100911458334,34.5,904.8434244791666,34.5,906.5100911458334,34.5L908.1767578125,34.5" style="stroke: rgb(0, 0, 0); stroke-width: 1px; fill: none; marker-end: url(&quot;#arrowhead&quot;);"/><path id="edge-dense_2[0][0]" class="edge-path" d="M971.6767578125,34.5L973.3434244791666,34.5C975.0100911458334,34.5,978.3434244791666,34.5,981.6767578125,34.5C985.0100911458334,34.5,988.3434244791666,34.5,990.0100911458334,34.5L991.6767578125,34.5" style="stroke: rgb(0, 0, 0); stroke-width: 1px; fill: none; marker-end: url(&quot;#arrowhead&quot;);"/><path id="edge-dropout_5[0][0]" class="edge-path" d="M1046.79638671875,34.5L1048.4630533854167,34.5C1050.1297200520833,34.5,1053.4630533854167,34.5,1056.79638671875,34.5C1060.1297200520833,34.5,1063.4630533854167,34.5,1065.1297200520833,34.5L1066.79638671875,34.5" style="stroke: rgb(0, 0, 0); stroke-width: 1px; fill: none; marker-end: url(&quot;#arrowhead&quot;);"/><path id="edge-dense_3[0][0]" class="edge-path" d="M1130.29638671875,34.5L1131.9630533854167,34.5C1133.6297200520833,34.5,1136.9630533854167,34.5,1140.29638671875,34.5C1143.6297200520833,34.5,1146.9630533854167,34.5,1148.6297200520833,34.5L1150.29638671875,34.5" style="stroke: rgb(0, 0, 0); stroke-width: 1px; fill: none; marker-end: url(&quot;#arrowhead&quot;);"/></g><g id="edge-labels" class="edge-labels"/><g id="nodes" class="nodes"><g id="input-name-input_layer_1" class="node graph-input" transform="translate(0,23)" style=""><g class="node-item graph-item-input" transform="translate(0,0)"><path d="M5,0h67.53125a5,5 0 0 1 5,5v13a5,5 0 0 1 -5,5h-67.53125a5,5 0 0 1 -5,-5v-13a5,5 0 0 1 5,-5z" style="stroke: rgb(0, 0, 0); fill: rgb(238, 238, 238); stroke-width: 0;"/><text x="6" y="16" style="font-family: -apple-system, BlinkMacSystemFont, &quot;Segoe WPC&quot;, &quot;Segoe UI&quot;, Ubuntu, &quot;Droid Sans&quot;, sans-serif, &quot;PingFang SC&quot;; font-size: 11px; text-rendering: geometricprecision; user-select: none;">input_layer_1</text><title>float32</title></g><path class="node node-border" d="M5,0h67.53125a5,5 0 0 1 5,5v13a5,5 0 0 1 -5,5h-67.53125a5,5 0 0 1 -5,-5v-13a5,5 0 0 1 5,-5z" style="stroke: rgb(51, 51, 51); fill: none; stroke-width: 1px;"/></g><g id="node-name-conv2d_2" class="node graph-node" transform="translate(117.53125,11.5)" style=""><g class="node-item node-item-type node-item-type-layer" transform="translate(0,0)"><path d="M5,0h53.5a5,5 0 0 1 5,5v18a0,0 0 0 1 0,0h-63.5a0,0 0 0 1 0,0v-18a5,5 0 0 1 5,-5z" style="stroke: rgb(0, 0, 0); fill: rgb(51, 85, 136); stroke-width: 0;"/><text x="6" y="16" style="font-family: -apple-system, BlinkMacSystemFont, &quot;Segoe WPC&quot;, &quot;Segoe UI&quot;, Ubuntu, &quot;Droid Sans&quot;, sans-serif, &quot;PingFang SC&quot;; font-size: 11px; text-rendering: geometricprecision; user-select: none; fill: rgb(255, 255, 255);">Conv2D</text><title>conv2d_2</title></g><g class="node-item node-item-type node-item-type-activation" transform="translate(0,23)"><path d="M0,0h63.5a0,0 0 0 1 0,0v18a5,5 0 0 1 -5,5h-53.5a5,5 0 0 1 -5,-5v-18a0,0 0 0 1 0,0z" style="stroke: rgb(0, 0, 0); fill: rgb(112, 41, 33); stroke-width: 0;"/><text x="6" y="16" style="font-family: -apple-system, BlinkMacSystemFont, &quot;Segoe WPC&quot;, &quot;Segoe UI&quot;, Ubuntu, &quot;Droid Sans&quot;, sans-serif, &quot;PingFang SC&quot;; font-size: 11px; text-rendering: geometricprecision; user-select: none; fill: rgb(255, 255, 255);">Activation</text></g><line class="node" x1="0" x2="63.5" y1="23" y2="23" style="stroke: rgb(51, 51, 51); fill: none; stroke-width: 1px;"/><path class="node node-border" d="M5,0h53.5a5,5 0 0 1 5,5v36a5,5 0 0 1 -5,5h-53.5a5,5 0 0 1 -5,-5v-36a5,5 0 0 1 5,-5z" style="stroke: rgb(51, 51, 51); fill: none; stroke-width: 1px;"/></g><g id="node-name-max_pooling2d_2" class="node graph-node" transform="translate(201.03125,23)" style=""><g class="node-item node-item-type node-item-type-pool" transform="translate(0,0)"><path d="M5,0h75.12646484375a5,5 0 0 1 5,5v13a5,5 0 0 1 -5,5h-75.12646484375a5,5 0 0 1 -5,-5v-13a5,5 0 0 1 5,-5z" style="stroke: rgb(0, 0, 0); fill: rgb(51, 85, 51); stroke-width: 0;"/><text x="6" y="16" style="font-family: -apple-system, BlinkMacSystemFont, &quot;Segoe WPC&quot;, &quot;Segoe UI&quot;, Ubuntu, &quot;Droid Sans&quot;, sans-serif, &quot;PingFang SC&quot;; font-size: 11px; text-rendering: geometricprecision; user-select: none; fill: rgb(255, 255, 255);">MaxPooling2D</text><title>max_pooling2d_2</title></g><path class="node node-border" d="M5,0h75.12646484375a5,5 0 0 1 5,5v13a5,5 0 0 1 -5,5h-75.12646484375a5,5 0 0 1 -5,-5v-13a5,5 0 0 1 5,-5z" style="stroke: rgb(51, 51, 51); fill: none; stroke-width: 1px;"/></g><g id="node-name-dropout_3" class="node graph-node" transform="translate(306.15771484375,23)" style=""><g class="node-item node-item-type node-item-type-dropout" transform="translate(0,0)"><path d="M5,0h45.11962890625a5,5 0 0 1 5,5v13a5,5 0 0 1 -5,5h-45.11962890625a5,5 0 0 1 -5,-5v-13a5,5 0 0 1 5,-5z" style="stroke: rgb(0, 0, 0); fill: rgb(69, 71, 112); stroke-width: 0;"/><text x="6" y="16" style="font-family: -apple-system, BlinkMacSystemFont, &quot;Segoe WPC&quot;, &quot;Segoe UI&quot;, Ubuntu, &quot;Droid Sans&quot;, sans-serif, &quot;PingFang SC&quot;; font-size: 11px; text-rendering: geometricprecision; user-select: none; fill: rgb(255, 255, 255);">Dropout</text><title>dropout_3</title></g><path class="node node-border" d="M5,0h45.11962890625a5,5 0 0 1 5,5v13a5,5 0 0 1 -5,5h-45.11962890625a5,5 0 0 1 -5,-5v-13a5,5 0 0 1 5,-5z" style="stroke: rgb(51, 51, 51); fill: none; stroke-width: 1px;"/></g><g id="node-name-conv2d_3" class="node graph-node" transform="translate(381.27734375,11.5)" style=""><g class="node-item node-item-type node-item-type-layer" transform="translate(0,0)"><path d="M5,0h53.5a5,5 0 0 1 5,5v18a0,0 0 0 1 0,0h-63.5a0,0 0 0 1 0,0v-18a5,5 0 0 1 5,-5z" style="stroke: rgb(0, 0, 0); fill: rgb(51, 85, 136); stroke-width: 0;"/><text x="6" y="16" style="font-family: -apple-system, BlinkMacSystemFont, &quot;Segoe WPC&quot;, &quot;Segoe UI&quot;, Ubuntu, &quot;Droid Sans&quot;, sans-serif, &quot;PingFang SC&quot;; font-size: 11px; text-rendering: geometricprecision; user-select: none; fill: rgb(255, 255, 255);">Conv2D</text><title>conv2d_3</title></g><g class="node-item node-item-type node-item-type-activation" transform="translate(0,23)"><path d="M0,0h63.5a0,0 0 0 1 0,0v18a5,5 0 0 1 -5,5h-53.5a5,5 0 0 1 -5,-5v-18a0,0 0 0 1 0,0z" style="stroke: rgb(0, 0, 0); fill: rgb(112, 41, 33); stroke-width: 0;"/><text x="6" y="16" style="font-family: -apple-system, BlinkMacSystemFont, &quot;Segoe WPC&quot;, &quot;Segoe UI&quot;, Ubuntu, &quot;Droid Sans&quot;, sans-serif, &quot;PingFang SC&quot;; font-size: 11px; text-rendering: geometricprecision; user-select: none; fill: rgb(255, 255, 255);">Activation</text></g><line class="node" x1="0" x2="63.5" y1="23" y2="23" style="stroke: rgb(51, 51, 51); fill: none; stroke-width: 1px;"/><path class="node node-border" d="M5,0h53.5a5,5 0 0 1 5,5v36a5,5 0 0 1 -5,5h-53.5a5,5 0 0 1 -5,-5v-36a5,5 0 0 1 5,-5z" style="stroke: rgb(51, 51, 51); fill: none; stroke-width: 1px;"/></g><g id="node-name-max_pooling2d_3" class="node graph-node" transform="translate(464.77734375,23)" style=""><g class="node-item node-item-type node-item-type-pool" transform="translate(0,0)"><path d="M5,0h75.12646484375a5,5 0 0 1 5,5v13a5,5 0 0 1 -5,5h-75.12646484375a5,5 0 0 1 -5,-5v-13a5,5 0 0 1 5,-5z" style="stroke: rgb(0, 0, 0); fill: rgb(51, 85, 51); stroke-width: 0;"/><text x="6" y="16" style="font-family: -apple-system, BlinkMacSystemFont, &quot;Segoe WPC&quot;, &quot;Segoe UI&quot;, Ubuntu, &quot;Droid Sans&quot;, sans-serif, &quot;PingFang SC&quot;; font-size: 11px; text-rendering: geometricprecision; user-select: none; fill: rgb(255, 255, 255);">MaxPooling2D</text><title>max_pooling2d_3</title></g><path class="node node-border" d="M5,0h75.12646484375a5,5 0 0 1 5,5v13a5,5 0 0 1 -5,5h-75.12646484375a5,5 0 0 1 -5,-5v-13a5,5 0 0 1 5,-5z" style="stroke: rgb(51, 51, 51); fill: none; stroke-width: 1px;"/></g><g id="node-name-dropout_4" class="node graph-node" transform="translate(569.90380859375,23)" style=""><g class="node-item node-item-type node-item-type-dropout" transform="translate(0,0)"><path d="M5,0h45.11962890625a5,5 0 0 1 5,5v13a5,5 0 0 1 -5,5h-45.11962890625a5,5 0 0 1 -5,-5v-13a5,5 0 0 1 5,-5z" style="stroke: rgb(0, 0, 0); fill: rgb(69, 71, 112); stroke-width: 0;"/><text x="6" y="16" style="font-family: -apple-system, BlinkMacSystemFont, &quot;Segoe WPC&quot;, &quot;Segoe UI&quot;, Ubuntu, &quot;Droid Sans&quot;, sans-serif, &quot;PingFang SC&quot;; font-size: 11px; text-rendering: geometricprecision; user-select: none; fill: rgb(255, 255, 255);">Dropout</text><title>dropout_4</title></g><path class="node node-border" d="M5,0h45.11962890625a5,5 0 0 1 5,5v13a5,5 0 0 1 -5,5h-45.11962890625a5,5 0 0 1 -5,-5v-13a5,5 0 0 1 5,-5z" style="stroke: rgb(51, 51, 51); fill: none; stroke-width: 1px;"/></g><g id="node-name-reshape_1" class="node graph-node" transform="translate(645.0234375,23)" style=""><g class="node-item node-item-type node-item-type-shape" transform="translate(0,0)"><path d="M5,0h44.9658203125a5,5 0 0 1 5,5v13a5,5 0 0 1 -5,5h-44.9658203125a5,5 0 0 1 -5,-5v-13a5,5 0 0 1 5,-5z" style="stroke: rgb(0, 0, 0); fill: rgb(108, 79, 71); stroke-width: 0;"/><text x="6" y="16" style="font-family: -apple-system, BlinkMacSystemFont, &quot;Segoe WPC&quot;, &quot;Segoe UI&quot;, Ubuntu, &quot;Droid Sans&quot;, sans-serif, &quot;PingFang SC&quot;; font-size: 11px; text-rendering: geometricprecision; user-select: none; fill: rgb(255, 255, 255);">Reshape</text><title>reshape_1</title></g><path class="node node-border" d="M5,0h44.9658203125a5,5 0 0 1 5,5v13a5,5 0 0 1 -5,5h-44.9658203125a5,5 0 0 1 -5,-5v-13a5,5 0 0 1 5,-5z" style="stroke: rgb(51, 51, 51); fill: none; stroke-width: 1px;"/></g><g id="node-name-bidirectional_2" class="node graph-node" transform="translate(719.9892578125,0)" style=""><g class="node-item node-item-type node-item-type-wrapper" transform="translate(0,0)"><path d="M5,0h64.09375a5,5 0 0 1 5,5v18a0,0 0 0 1 0,0h-74.09375a0,0 0 0 1 0,0v-18a5,5 0 0 1 5,-5z" style="stroke: rgb(0, 0, 0); fill: rgb(238, 238, 238); stroke-width: 0;"/><text x="6" y="16" style="font-family: -apple-system, BlinkMacSystemFont, &quot;Segoe WPC&quot;, &quot;Segoe UI&quot;, Ubuntu, &quot;Droid Sans&quot;, sans-serif, &quot;PingFang SC&quot;; font-size: 11px; text-rendering: geometricprecision; user-select: none; fill: rgb(0, 0, 0);">Bidirectional</text><title>bidirectional_2</title></g><g class="node-item node-item-type node-item-type-layer" transform="translate(0,23)"><path d="M0,0h74.09375a0,0 0 0 1 0,0v23a0,0 0 0 1 0,0h-74.09375a0,0 0 0 1 0,0v-23a0,0 0 0 1 0,0z" style="stroke: rgb(0, 0, 0); fill: rgb(51, 85, 136); stroke-width: 0;"/><text x="6" y="16" style="font-family: -apple-system, BlinkMacSystemFont, &quot;Segoe WPC&quot;, &quot;Segoe UI&quot;, Ubuntu, &quot;Droid Sans&quot;, sans-serif, &quot;PingFang SC&quot;; font-size: 11px; text-rendering: geometricprecision; user-select: none; fill: rgb(255, 255, 255);">LSTM</text><title>forward_lstm_2</title></g><line class="node" x1="0" x2="74.09375" y1="23" y2="23" style="stroke: rgb(51, 51, 51); fill: none; stroke-width: 1px;"/><g class="node-item node-item-type node-item-type-activation" transform="translate(0,46)"><path d="M0,0h74.09375a0,0 0 0 1 0,0v18a5,5 0 0 1 -5,5h-64.09375a5,5 0 0 1 -5,-5v-18a0,0 0 0 1 0,0z" style="stroke: rgb(0, 0, 0); fill: rgb(112, 41, 33); stroke-width: 0;"/><text x="6" y="16" style="font-family: -apple-system, BlinkMacSystemFont, &quot;Segoe WPC&quot;, &quot;Segoe UI&quot;, Ubuntu, &quot;Droid Sans&quot;, sans-serif, &quot;PingFang SC&quot;; font-size: 11px; text-rendering: geometricprecision; user-select: none; fill: rgb(255, 255, 255);">Activation</text></g><line class="node" x1="0" x2="74.09375" y1="46" y2="46" style="stroke: rgb(51, 51, 51); fill: none; stroke-width: 1px;"/><path class="node node-border" d="M5,0h64.09375a5,5 0 0 1 5,5v59a5,5 0 0 1 -5,5h-64.09375a5,5 0 0 1 -5,-5v-59a5,5 0 0 1 5,-5z" style="stroke: rgb(51, 51, 51); fill: none; stroke-width: 1px;"/></g><g id="node-name-bidirectional_3" class="node graph-node" transform="translate(814.0830078125,0)" style=""><g class="node-item node-item-type node-item-type-wrapper" transform="translate(0,0)"><path d="M5,0h64.09375a5,5 0 0 1 5,5v18a0,0 0 0 1 0,0h-74.09375a0,0 0 0 1 0,0v-18a5,5 0 0 1 5,-5z" style="stroke: rgb(0, 0, 0); fill: rgb(238, 238, 238); stroke-width: 0;"/><text x="6" y="16" style="font-family: -apple-system, BlinkMacSystemFont, &quot;Segoe WPC&quot;, &quot;Segoe UI&quot;, Ubuntu, &quot;Droid Sans&quot;, sans-serif, &quot;PingFang SC&quot;; font-size: 11px; text-rendering: geometricprecision; user-select: none; fill: rgb(0, 0, 0);">Bidirectional</text><title>bidirectional_3</title></g><g class="node-item node-item-type node-item-type-layer" transform="translate(0,23)"><path d="M0,0h74.09375a0,0 0 0 1 0,0v23a0,0 0 0 1 0,0h-74.09375a0,0 0 0 1 0,0v-23a0,0 0 0 1 0,0z" style="stroke: rgb(0, 0, 0); fill: rgb(51, 85, 136); stroke-width: 0;"/><text x="6" y="16" style="font-family: -apple-system, BlinkMacSystemFont, &quot;Segoe WPC&quot;, &quot;Segoe UI&quot;, Ubuntu, &quot;Droid Sans&quot;, sans-serif, &quot;PingFang SC&quot;; font-size: 11px; text-rendering: geometricprecision; user-select: none; fill: rgb(255, 255, 255);">LSTM</text><title>forward_lstm_3</title></g><line class="node" x1="0" x2="74.09375" y1="23" y2="23" style="stroke: rgb(51, 51, 51); fill: none; stroke-width: 1px;"/><g class="node-item node-item-type node-item-type-activation" transform="translate(0,46)"><path d="M0,0h74.09375a0,0 0 0 1 0,0v18a5,5 0 0 1 -5,5h-64.09375a5,5 0 0 1 -5,-5v-18a0,0 0 0 1 0,0z" style="stroke: rgb(0, 0, 0); fill: rgb(112, 41, 33); stroke-width: 0;"/><text x="6" y="16" style="font-family: -apple-system, BlinkMacSystemFont, &quot;Segoe WPC&quot;, &quot;Segoe UI&quot;, Ubuntu, &quot;Droid Sans&quot;, sans-serif, &quot;PingFang SC&quot;; font-size: 11px; text-rendering: geometricprecision; user-select: none; fill: rgb(255, 255, 255);">Activation</text></g><line class="node" x1="0" x2="74.09375" y1="46" y2="46" style="stroke: rgb(51, 51, 51); fill: none; stroke-width: 1px;"/><path class="node node-border" d="M5,0h64.09375a5,5 0 0 1 5,5v59a5,5 0 0 1 -5,5h-64.09375a5,5 0 0 1 -5,-5v-59a5,5 0 0 1 5,-5z" style="stroke: rgb(51, 51, 51); fill: none; stroke-width: 1px;"/></g><g id="node-name-dense_2" class="node graph-node" transform="translate(908.1767578125,11.5)" style=""><g class="node-item node-item-type node-item-type-layer" transform="translate(0,0)"><path d="M5,0h53.5a5,5 0 0 1 5,5v18a0,0 0 0 1 0,0h-63.5a0,0 0 0 1 0,0v-18a5,5 0 0 1 5,-5z" style="stroke: rgb(0, 0, 0); fill: rgb(51, 85, 136); stroke-width: 0;"/><text x="6" y="16" style="font-family: -apple-system, BlinkMacSystemFont, &quot;Segoe WPC&quot;, &quot;Segoe UI&quot;, Ubuntu, &quot;Droid Sans&quot;, sans-serif, &quot;PingFang SC&quot;; font-size: 11px; text-rendering: geometricprecision; user-select: none; fill: rgb(255, 255, 255);">Dense</text><title>dense_2</title></g><g class="node-item node-item-type node-item-type-activation" transform="translate(0,23)"><path d="M0,0h63.5a0,0 0 0 1 0,0v18a5,5 0 0 1 -5,5h-53.5a5,5 0 0 1 -5,-5v-18a0,0 0 0 1 0,0z" style="stroke: rgb(0, 0, 0); fill: rgb(112, 41, 33); stroke-width: 0;"/><text x="6" y="16" style="font-family: -apple-system, BlinkMacSystemFont, &quot;Segoe WPC&quot;, &quot;Segoe UI&quot;, Ubuntu, &quot;Droid Sans&quot;, sans-serif, &quot;PingFang SC&quot;; font-size: 11px; text-rendering: geometricprecision; user-select: none; fill: rgb(255, 255, 255);">Activation</text></g><line class="node" x1="0" x2="63.5" y1="23" y2="23" style="stroke: rgb(51, 51, 51); fill: none; stroke-width: 1px;"/><path class="node node-border" d="M5,0h53.5a5,5 0 0 1 5,5v36a5,5 0 0 1 -5,5h-53.5a5,5 0 0 1 -5,-5v-36a5,5 0 0 1 5,-5z" style="stroke: rgb(51, 51, 51); fill: none; stroke-width: 1px;"/></g><g id="node-name-dropout_5" class="node graph-node" transform="translate(991.6767578125,23)" style=""><g class="node-item node-item-type node-item-type-dropout" transform="translate(0,0)"><path d="M5,0h45.11962890625a5,5 0 0 1 5,5v13a5,5 0 0 1 -5,5h-45.11962890625a5,5 0 0 1 -5,-5v-13a5,5 0 0 1 5,-5z" style="stroke: rgb(0, 0, 0); fill: rgb(69, 71, 112); stroke-width: 0;"/><text x="6" y="16" style="font-family: -apple-system, BlinkMacSystemFont, &quot;Segoe WPC&quot;, &quot;Segoe UI&quot;, Ubuntu, &quot;Droid Sans&quot;, sans-serif, &quot;PingFang SC&quot;; font-size: 11px; text-rendering: geometricprecision; user-select: none; fill: rgb(255, 255, 255);">Dropout</text><title>dropout_5</title></g><path class="node node-border" d="M5,0h45.11962890625a5,5 0 0 1 5,5v13a5,5 0 0 1 -5,5h-45.11962890625a5,5 0 0 1 -5,-5v-13a5,5 0 0 1 5,-5z" style="stroke: rgb(51, 51, 51); fill: none; stroke-width: 1px;"/></g><g id="node-name-dense_3" class="node graph-node" transform="translate(1066.79638671875,11.5)" style=""><g class="node-item node-item-type node-item-type-layer" transform="translate(0,0)"><path d="M5,0h53.5a5,5 0 0 1 5,5v18a0,0 0 0 1 0,0h-63.5a0,0 0 0 1 0,0v-18a5,5 0 0 1 5,-5z" style="stroke: rgb(0, 0, 0); fill: rgb(51, 85, 136); stroke-width: 0;"/><text x="6" y="16" style="font-family: -apple-system, BlinkMacSystemFont, &quot;Segoe WPC&quot;, &quot;Segoe UI&quot;, Ubuntu, &quot;Droid Sans&quot;, sans-serif, &quot;PingFang SC&quot;; font-size: 11px; text-rendering: geometricprecision; user-select: none; fill: rgb(255, 255, 255);">Dense</text><title>dense_3</title></g><g class="node-item node-item-type node-item-type-activation" transform="translate(0,23)"><path d="M0,0h63.5a0,0 0 0 1 0,0v18a5,5 0 0 1 -5,5h-53.5a5,5 0 0 1 -5,-5v-18a0,0 0 0 1 0,0z" style="stroke: rgb(0, 0, 0); fill: rgb(112, 41, 33); stroke-width: 0;"/><text x="6" y="16" style="font-family: -apple-system, BlinkMacSystemFont, &quot;Segoe WPC&quot;, &quot;Segoe UI&quot;, Ubuntu, &quot;Droid Sans&quot;, sans-serif, &quot;PingFang SC&quot;; font-size: 11px; text-rendering: geometricprecision; user-select: none; fill: rgb(255, 255, 255);">Activation</text></g><line class="node" x1="0" x2="63.5" y1="23" y2="23" style="stroke: rgb(51, 51, 51); fill: none; stroke-width: 1px;"/><path class="node node-border" d="M5,0h53.5a5,5 0 0 1 5,5v36a5,5 0 0 1 -5,5h-53.5a5,5 0 0 1 -5,-5v-36a5,5 0 0 1 5,-5z" style="stroke: rgb(51, 51, 51); fill: none; stroke-width: 1px;"/></g><g class="node" transform="translate(1150.29638671875,23)" style=""><g class="node-item graph-item-output" transform="translate(0,0)"><path d="M5,0h43.4404296875a5,5 0 0 1 5,5v13a5,5 0 0 1 -5,5h-43.4404296875a5,5 0 0 1 -5,-5v-13a5,5 0 0 1 5,-5z" style="stroke: rgb(0, 0, 0); fill: rgb(238, 238, 238); stroke-width: 0;"/><text x="6" y="16" style="font-family: -apple-system, BlinkMacSystemFont, &quot;Segoe WPC&quot;, &quot;Segoe UI&quot;, Ubuntu, &quot;Droid Sans&quot;, sans-serif, &quot;PingFang SC&quot;; font-size: 11px; text-rendering: geometricprecision; user-select: none;">dense_3</text></g><path class="node node-border" d="M5,0h43.4404296875a5,5 0 0 1 5,5v13a5,5 0 0 1 -5,5h-43.4404296875a5,5 0 0 1 -5,-5v-13a5,5 0 0 1 5,-5z" style="stroke: rgb(51, 51, 51); fill: none; stroke-width: 1px;"/></g></g></g></svg>